<svg xmlns="http://www.w3.org/2000/svg" xmlns:xlink="http://www.w3.org/1999/xlink" width="939" height="355" viewBox="0 0 939 355">
  <defs>
    <clipPath id="clip-logo">
      <rect width="939" height="355"/>
    </clipPath>
  </defs>
  <g id="logo" clip-path="url(#clip-logo)">
    <g id="Group_6" data-name="Group 6" transform="translate(-190 -121)">
      <path id="Path_16" data-name="Path 16" d="M27.883,0q-4.944,0-4.944-10.283V-275.076q0-5.735,1.187-7.515a4.19,4.19,0,0,1,3.757-1.78h58.14q9.1,0,15.721.593a89.808,89.808,0,0,1,14.832,2.769,45.9,45.9,0,0,1,13.942,6.031A56.344,56.344,0,0,1,142.086-264.1a56.192,56.192,0,0,1,9.393,16.71,129.667,129.667,0,0,1,5.834,24.027,209.182,209.182,0,0,1,2.274,32.531q0,23.73-3.856,40.935T145.942-123a44.864,44.864,0,0,1-15.326,15.326,54.354,54.354,0,0,1-18.094,7.218,115.164,115.164,0,0,1-20.369,1.582H64.072q-2.175,0-2.175,3.56v85.034Q61.9,0,56.953,0ZM63.875-130.518H87.6a56.146,56.146,0,0,0,13.25-1.285,22.514,22.514,0,0,0,9.294-4.845q4.153-3.56,6.229-10.481a96.376,96.376,0,0,0,3.164-17.3,259.45,259.45,0,0,0,1.088-26.2,186.4,186.4,0,0,0-1.879-28.773q-1.879-11.766-4.647-18.292a21.763,21.763,0,0,0-8.009-9.987,27.621,27.621,0,0,0-9.987-4.351,68.753,68.753,0,0,0-12.261-.89H63.875q-1.978,0-1.978,3.955v114.9Q61.9-130.518,63.875-130.518ZM190.257,0q-4.944,0-4.944-10.679V-277.251q0-11.865,4.944-11.865h22.148q4.944,0,4.944,11.865V-10.679Q217.349,0,212.405,0ZM292.117,2.175A51.806,51.806,0,0,1,277.582.3a35.571,35.571,0,0,1-12.557-6.921,40.28,40.28,0,0,1-10.283-13.348q-4.153-8.306-6.625-21.852a178.846,178.846,0,0,1-2.472-31.74V-189.25q0-5.933,1.285-7.811a4.362,4.362,0,0,1,3.856-1.879h23.335a4.171,4.171,0,0,1,3.658,1.879q1.285,1.879,1.285,7.811V-68.225q0,23.533,4.944,33.519t15.227,9.987q11.47,0,18.589-15.721t7.119-36.683V-189.25q0-5.933,1.285-7.811a4.362,4.362,0,0,1,3.856-1.879h22.148a4.362,4.362,0,0,1,3.856,1.879q1.285,1.879,1.285,7.811V-12.063Q357.376,0,352.432,0h-5.142a5.834,5.834,0,0,1-4.449-1.78q-1.681-1.78-2.67-7.712l-4.548-28.081q-.593-2.571-1.384-2.571t-1.384,2.373Q327.911-17.6,316.639-7.712T292.117,2.175ZM435.7-101.646q7.515,11.47,19.775,11.47t18.688-11.272q6.427-11.272,6.427-31.047,0-20.764-7.416-33.915T453.7-179.561q-11.667,0-18.49,12.162t-6.823,32.531Q428.387-113.313,435.7-101.646ZM453.3,39.946q19.578,0,29.465-8.4t9.888-24.027q0-12.854-7.02-17.007t-19.874-4.153H443.219q-1.78,0-4.944,4.845a58.312,58.312,0,0,0-5.933,13.052,49.144,49.144,0,0,0-2.769,15.721Q429.574,39.946,453.3,39.946ZM450.536,60.71q-24.521,0-37.969-8.7T399.12,27.488q0-18.193,16.809-43.308a4.326,4.326,0,0,0,.791-2.769,3.312,3.312,0,0,0-1.187-2.966q-.593-.2-3.263-1.285t-3.263-1.285q-.593-.2-2.769-1.187a11.245,11.245,0,0,1-2.67-1.483,15.636,15.636,0,0,0-2.175-1.582,5.439,5.439,0,0,1-2.076-1.978,17.317,17.317,0,0,0-1.384-2.373,8.293,8.293,0,0,1-1.285-2.966q-.3-1.483-.593-3.461a27.987,27.987,0,0,1-.3-4.153,52.615,52.615,0,0,1,2.571-16.908q2.571-7.614,4.647-10.679t7.416-9.591a6.626,6.626,0,0,0,1.384-3.757,5.277,5.277,0,0,0-1.187-3.56q-6.328-6.921-11.272-19.182a69.663,69.663,0,0,1-4.944-26.3q0-30.652,14.535-49.34t43.011-18.688c3.428,0,23.781,2.333,31.164,8.536,17.139,12.656,28.756,34.64,28.756,59.293q0,31.047-13.843,48.054T456.666-68.423a49.828,49.828,0,0,1-25.312-6.724q-2.769,1.978-5.537,8.207a32.021,32.021,0,0,0-2.769,13.151q0,16.611,20.566,16.611h21.16q29.663,0,42.715,10.085T520.541,4.944a56.434,56.434,0,0,1-4.548,23.236A44.306,44.306,0,0,1,504.424,44.3a60.408,60.408,0,0,1-16.611,9.789,84.27,84.27,0,0,1-18.589,5.24A122.789,122.789,0,0,1,450.536,60.71Z" transform="translate(169 411)" fill="#2baf7c"/>
      <g id="Group_3" data-name="Group 3" transform="matrix(0.966, -0.259, 0.259, 0.966, 953.154, 148.374)">
        <g id="Group_2" data-name="Group 2" transform="translate(0 0)">
          <path id="Path_1" data-name="Path 1" d="M4.576.692c12.527-4.542,3.7,14.967-2.985,9.7C-1.827,7.7.773,2.069,4.576.692Z" transform="translate(19.287 32.897)" stroke="#707070" stroke-width="1" fill-rule="evenodd"/>
          <path id="Path_2" data-name="Path 2" d="M20.9,50.756c.848-3.271,0-2.453-.747-5.224,2.037-.545,1.5,1.483,2.985,1.492,3.166-.738-1.062-4.548,2.239-4.479-2.788-2.022-3.86,5.27-4.479-1.492,5.367,2.081,4.307-4.064,1.492-5.971,4.389.032.239-8.151-2.239-11.195-.9-1.108-.732.732-2.239,0s-2.142-5.222-2.985-5.971c-3.69-3.275-13.759-5.95-11.942-4.479-1.987-1.607,1.108-.652,0-2.985-.663-1.4-2.8.866-2.985-1.492C-.152,7.044,7.21-2.754,8.213.751c.76,2.662-.365-.325,7.463,2.239.982.321,3.413,2.218,3.732,2.239,2.293.153,13.088-.741,14.927.747.336.271-.369,2.849,0,2.985,3.869,1.427,9.013-.445,11.942.747.392.159-.373,2.742,0,2.985,2.331,1.523,7.7,1.072,10.45,2.239-.01,0-1.219,1.848-.747,2.239,1.756,1.458,5.683-.652,11.195,0,.65.075,1.735,2.218,2.239,2.239,2.7.113,4.741-2.054,6.718-1.492,1.937.55,3.64,3.567,6.718.747C84.3,25.957,91.773,25.54,97.031,29.86c4.714,3.877,8.5,9.621,11.942,16.421,5.113,10.091,13.316,20.907,12.689,31.347-.128,2.15-2.077,3.967-2.239,5.971-.277,3.426,1.733,7.41.747,11.195-.122.474-3.092,2.184-3.732,3.732-.4.967.564,2.87,0,3.732-.925,1.42-4.958,2.172-5.971,6.718a25.378,25.378,0,0,0,0,7.463c1.114,9.242,6.986,19.155,5.971,29.855-.866,9.129-9.882,22.8-15.674,27.616-5.09,4.23-21.9,8.346-21.9,8.346l-.49-3.867L76.133,175.4c16.43-2.65,33.828-18.121,31.347-38.066-.546-4.387-5.887-19.426-9.7-22.392-.55-.43-1.7.514-1.492.747-2.436-2.763-1.683-4.886-5.971-1.492.317-1.559-.512-1.976-.747-2.985-9.024.678-6.582,12.823-15.674,13.434-.73-3.949,2.849-5.614,1.492-8.958-.319-.793-2.595-.564-2.985-1.492-.915-2.184,1.509-6.936-3.732-6.718-1.074-4.5,3.157-5.791,0-8.21l2.364-1.618-.124-2.86c-.319-4.408,4.349.055,4.479-2.985-2.772-3.646-5.22-6.636-8.21-10.45.306.388-1.225.925-1.492.747-1.229-.818-.245-4.783-.747-5.224-1.6-1.414-6.972-3.051-8.958-2.239-1.45.6-.5,3.2-2.239,4.479-1.175.864-3.678-.216-2.985,2.985L47.4,81.735l.373,3.359c-3.145,2.081-1.253,4.811-2.239,6.718.006-.011-1.41-2.153-2.239-1.492-3.319,2.637,4.635,6.848,2.985,12.689-4.389.317-4.282-5.373-7.463-5.971-1.441-.273-1.785,1.3-2.985.747-5.077-2.346-8.845-7.673-17.166-8.21,1.208-4.265,7.717-3.229,11.195-5.224,1.829.925-2.237,2.171-2.239,3.732,3.5-.09,4-.2,7.463,2.239-1.936-4.781-2.648-10.788-8.21-11.942l-1.716-1.12-2.016.373c-2.194-4.248-9.2-1.045-12.689,0-1.2-2.715,6.762-2.675,10.45-2.985-3-3.223-6.911-5.53-6.718-11.942L16.3,60.342l2.364-2.115C20.583,66.5,35.89,71.681,38.066,64.2c-.29,1-2.085-7.043-2.239-7.463.138.376-3.168-4.181-3.732-6.718-3.178,3.292-7.161,5.776-7.463,11.942-1.192-2.043-2.788-3.684-3.732-5.971l2.52-2.612ZM26.128,20.9c4.047-5.26-1.45-15.278-5.971-14.181C24.034,9.561,22.839,17.471,26.128,20.9Z" transform="translate(22.366 2.985)" fill-rule="evenodd"/>
          <path id="Path_3" data-name="Path 3" d="M11.3,18.288l-2.364.373C8.158,10.918-2.893,9.676.726,0,8.993,1.068,16.8,9.821,23.863,5.224c1.594,2.7-2.486,1.183-3.732,2.985C17.9,11.436,18.95,19.021,13.413,19.4Z" transform="translate(0)" stroke="#707070" stroke-width="1" fill-rule="evenodd"/>
          <g id="Group_1" data-name="Group 1" transform="translate(0.65 18.289)">
            <path id="Path_5" data-name="Path 5" d="M23.636,15.922C15.916,9.915,7.486,6.026,0,0" transform="translate(69.116 66.426)" fill="none" stroke="#1a1a1a" stroke-linecap="round" stroke-width="2.423" fill-rule="evenodd"/>
            <path id="Path_6" data-name="Path 6" d="M12.838,0C11.976,5.658,4.034,4.735,0,3.136" transform="translate(34.037 61.948)" fill="none" stroke="#1a1a1a" stroke-linecap="round" stroke-width="2.264" fill-rule="evenodd"/>
            <path id="Path_7" data-name="Path 7" d="M36.871,41.2C27.759,37.024,5.757,52.772.428,43.049-1.886,38.82,5.869,29.32,7.476,21.222,9.083,13.142,8.97,6.842,10.648,0" transform="translate(0)" fill="none" stroke="#1a1a1a" stroke-linecap="round" stroke-width="1.991" fill-rule="evenodd"/>
            <path id="Path_8" data-name="Path 8" d="M0,3.246A8.6,8.6,0,0,1,8.268.111" transform="translate(36.871 37.953)" fill="none" stroke="#1a1a1a" stroke-linecap="round" stroke-width="2.924" fill-rule="evenodd"/>
            <path id="Path_9" data-name="Path 9" d="M0,0A13.139,13.139,0,0,0,1.146,3.831" transform="translate(36.871 41.199)" fill="none" stroke="#1a1a1a" stroke-linecap="round" stroke-width="3.506" fill-rule="evenodd"/>
          </g>
        </g>
      </g>
      <g id="Group_5" data-name="Group 5" transform="translate(480.563 -485.268)">
        <path id="Path_10" data-name="Path 10" d="M513.988,902.215c-3.245,0-4.868-4.327-4.868-13.017V674.612c0-4.147-.829-6.094-2.524-5.842-10.241,2.6-15.4,3.894-15.541,3.894-2.849.252-4.255-2.6-4.255-8.546V645.476c0-5.156,1.551-8.077,4.652-8.726l51.276-13.2a6.837,6.837,0,0,1,1.731-.18c2.849,0,4.255,3.029,4.255,9.123V889.234c0,8.69-1.695,13.017-5.048,13.017Zm132.8.4a73.425,73.425,0,0,1-13.486-1.082,35.979,35.979,0,0,1-11.935-4.868,30.267,30.267,0,0,1-10.2-10.385q-4-6.6-6.491-18.462a138.431,138.431,0,0,1-2.524-28.162V740.059c0-2.6-.721-3.894-2.128-3.894H587.981q-4.868,0-4.868-9.3V716.368q0-9.519,4.868-9.52h12.044c1.406,0,2.128-1.731,2.128-5.229l3.5-75.543c.4-6.851,2.055-10.277,5.048-10.277h19.436q4.868,0,4.868,10.277V701.62c0,3.5.757,5.229,2.344,5.229h24.772q4.868,0,4.868,9.52v10.493q0,9.3-4.868,9.3H637.274a2.087,2.087,0,0,0-1.839.685,6.536,6.536,0,0,0-.469,3.209V840.266a100.51,100.51,0,0,0,1.442,18.751c.974,4.976,2.38,8.654,4.255,10.962a14.939,14.939,0,0,0,5.625,4.652,17.758,17.758,0,0,0,6.887,1.154H666.95c3.5,0,5.229,2.416,5.229,7.176v11.647c0,5.3-1.875,7.969-5.625,7.969l-19.76.036Zm74.534,23.294c2.957,0,5.553-2.416,7.753-7.284s3.317-11.755,3.317-20.7q0-3.137-3.894-21.563L690.424,718.1a33.486,33.486,0,0,1-.4-4.291c0-4.652.974-7,2.921-7h23.51a5.955,5.955,0,0,1,4.471,1.839q1.785,1.839,2.7,7.464l25.241,133.6c.5,1.551.829,2.344.974,2.344.5,0,.793-.721.793-2.128l19.8-133.237c.5-3.894,1.334-6.491,2.416-7.861a5.107,5.107,0,0,1,4.183-2.055h16.3c2.2,0,3.317,2.524,3.317,7.572a34.23,34.23,0,0,1-.4,4.471l-34.58,180.042q-4.057,22.339-8.943,34.184c-3.245,7.9-6.851,13.27-10.89,16.118-4,2.849-9.3,4.327-15.938,4.471h-1.947q-15.74,0-21.347-8.366c-1.046-1.154-1.551-4.147-1.551-8.943q0-14.387,4.652-14.387c.252,0,2.6.649,7,1.947,4.471,1.37,7.32,2.019,8.618,2.019Z" transform="translate(-173.281)"/>
        <g id="Group_4" data-name="Group 4" transform="translate(215.8 623.697)">
          <path id="Path_11" data-name="Path 11" d="M242.988,916.579c-3.245,0-4.868-4.327-4.868-13.017V688.976c0-4.147-.829-6.094-2.524-5.842-10.241,2.6-15.4,3.894-15.541,3.894-2.849.252-4.255-2.6-4.255-8.546V659.84c0-5.156,1.551-8.077,4.652-8.726l51.312-13.234a6.837,6.837,0,0,1,1.731-.18c2.849,0,4.255,3.029,4.255,9.123V903.562c0,8.69-1.695,13.017-5.048,13.017H242.988Z" transform="translate(-215.8 -637.7)"/>
        </g>
      </g>
      <g id="noun_Plug_2490786" transform="translate(1026.543 326.74) rotate(-92)">
        <path id="Path_12" data-name="Path 12" d="M0,1.836C0,4.66,2.827,6.944,6.322,6.944h.171c3.487,0,6.314-2.284,6.314-5.108V0H0Z" transform="translate(20.36 67.808)"/>
        <path id="Union_1" data-name="Union 1" d="M19.711,55.9A8.284,8.284,0,0,1,13.4,52.978L8.752,47.507a8.283,8.283,0,0,1-1.969-5.361V22.536H3.342a3.342,3.342,0,0,1,0-6.683h9v-12a3.855,3.855,0,0,1,7.71,0v12H34.436v-12a3.855,3.855,0,0,1,7.71,0v12h8.507a3.342,3.342,0,0,1,0,6.684H47.212V42.155a8.283,8.283,0,0,1-1.969,5.36l-4.637,5.462A8.283,8.283,0,0,1,34.292,55.9Z" transform="translate(-0.861 12.519)" fill="#2baf7c" stroke="#000" stroke-width="3"/>
      </g>
    </g>
  </g>
</svg>
